<!-- icon666.com - MILLIONS vector ICONS FREE --><svg xmlns="http://www.w3.org/2000/svg" xmlns:xlink="http://www.w3.org/1999/xlink" viewBox="0 0 128 128"><defs><linearGradient id="a" x1="109.916" y1="111.132" x2="34.918" y2="36.134" gradientUnits="userSpaceOnUse"><stop offset="0" stop-color="#5893d4"></stop><stop offset="1" stop-color="#f7b634"></stop></linearGradient></defs><path d="M54.718,45.988a1.75,1.75,0,1,1-.184-3.495,18.208,18.208,0,0,1,5.7.608,1.751,1.751,0,0,1-.461,3.439,1.768,1.768,0,0,1-.463-.063A14.577,14.577,0,0,0,54.718,45.988ZM41.069,60.4a14.487,14.487,0,0,1,7.19-12.484,1.75,1.75,0,0,0-1.76-3.026,18,18,0,0,0-8.93,15.51,1.75,1.75,0,0,0,3.5,0Zm62.4,18.746a10.089,10.089,0,0,0-6.2,2.106A1.75,1.75,0,1,0,99.4,84.023a6.627,6.627,0,0,1,4.071-1.381,6.7,6.7,0,0,1,6.69,6.69,1.75,1.75,0,0,0,3.5,0A10.2,10.2,0,0,0,103.473,79.142ZM93.044,18.483a1.749,1.749,0,0,0,2.393-.632L98.9,11.892a1.75,1.75,0,0,0-3.025-1.761L92.411,16.09A1.75,1.75,0,0,0,93.044,18.483ZM49.113,25.047l5.959,3.468a1.75,1.75,0,1,0,1.76-3.025l-5.959-3.469a1.75,1.75,0,1,0-1.76,3.026Zm55.723,28.382a1.75,1.75,0,1,0-1.76,3.026l5.959,3.468A1.75,1.75,0,1,0,110.8,56.9ZM64.472,17.851A1.75,1.75,0,0,0,67.5,16.09l-3.468-5.959A1.75,1.75,0,0,0,61,11.892Zm39.486,10.9a1.739,1.739,0,0,0,.878-.238l5.959-3.468a1.75,1.75,0,1,0-1.76-3.026l-5.959,3.469a1.75,1.75,0,0,0,.882,3.263Zm-9.4,12.219a14.621,14.621,0,0,0-14.606-14.6,1.75,1.75,0,0,0,0,3.5A11.118,11.118,0,0,1,91.06,40.972a1.75,1.75,0,1,0,3.5,0ZM91.7,97.624c.248.291,6.061,7.2,6.024,13.127a7.357,7.357,0,0,1-14.713-.011,10.189,10.189,0,0,1,.109-1.438H74.409a16.587,16.587,0,0,1,.356,3.387,10.765,10.765,0,0,1-21.53-.01,16.621,16.621,0,0,1,.354-3.377H44.882a10.2,10.2,0,0,1,.11,1.449,7.357,7.357,0,0,1-14.713-.011,10.189,10.189,0,0,1,.109-1.438H27.5a22.947,22.947,0,0,1,0-45.894c.148,0,.3,0,.451.006a27.744,27.744,0,0,1,.817-10.363,1.75,1.75,0,1,1,3.375.925,23.337,23.337,0,0,0-.592,9.8A23.1,23.1,0,0,1,49.141,78.7a1.75,1.75,0,0,1-1.066,2.234,1.73,1.73,0,0,1-.584.1,1.751,1.751,0,0,1-1.649-1.167A19.561,19.561,0,0,0,29.9,67.057c-.031,0-.062,0-.093,0a19.693,19.693,0,0,0-2.3-.149,19.447,19.447,0,0,0,0,38.894h3.839a33.1,33.1,0,0,1,4.96-8.178,1.808,1.808,0,0,1,2.666,0,33.058,33.058,0,0,1,4.958,8.178H54.6a51.058,51.058,0,0,1,8.071-13.525,1.808,1.808,0,0,1,2.666,0A51.038,51.038,0,0,1,73.4,105.8H84.071a33.1,33.1,0,0,1,4.96-8.178A1.808,1.808,0,0,1,91.7,97.624ZM41.492,110.74c.019-2.953-2.173-6.729-3.855-9.108-1.683,2.383-3.876,6.162-3.858,9.1a3.857,3.857,0,1,0,7.713.011Zm29.773,1.939c.036-5.934-4.841-13.2-7.265-16.434-2.425,3.239-7.3,10.5-7.265,16.423a7.265,7.265,0,1,0,14.53.011Zm22.956-1.939c.018-2.953-2.173-6.729-3.856-9.108-1.682,2.383-3.876,6.162-3.857,9.1a3.857,3.857,0,1,0,7.713.011Zm29.222-21.408a19.969,19.969,0,0,1-6.909,15.108,1.75,1.75,0,0,1-2.291-2.647A16.444,16.444,0,0,0,101.6,72.976a1.751,1.751,0,0,1-1.9-2.143A11.924,11.924,0,0,0,82.021,57.792c-.025.015-.053.021-.079.035a12.051,12.051,0,0,0-5.4,7.161,1.753,1.753,0,0,1-1.69,1.3,1.718,1.718,0,0,1-.452-.06,1.751,1.751,0,0,1-1.241-2.141,15.582,15.582,0,0,1,6.017-8.624A24.2,24.2,0,0,0,34.94,47.6a1.749,1.749,0,1,1-2.968-1.852A27.57,27.57,0,0,1,55.5,32.687a28.327,28.327,0,0,1,3.8.278A22.021,22.021,0,0,1,78.2,18.883V6.307a1.75,1.75,0,0,1,3.5,0V18.889a22.187,22.187,0,0,1,20.333,20.333H114.62a1.75,1.75,0,0,1,0,3.5H102.038a21.878,21.878,0,0,1-5.213,12.621,15.436,15.436,0,0,1,6.711,12.726q0,.64-.057,1.292A19.994,19.994,0,0,1,123.443,89.332ZM88.089,52.622a15.35,15.35,0,0,1,5.517,1.036,18.464,18.464,0,0,0,5.006-12.686,18.656,18.656,0,0,0-35.819-7.317A27.512,27.512,0,0,1,82.4,53.719,15.385,15.385,0,0,1,88.089,52.622Zm19.508,52.66a16.542,16.542,0,0,1-4.124.52,1.75,1.75,0,0,0,0,3.5,20.053,20.053,0,0,0,5-.63,1.75,1.75,0,0,0-.873-3.39Z" fill="url(#a)"></path></svg>